<?xml version="1.0" encoding="UTF-8"?>
<svg width="7" height="7" viewBox="0 0 7 7" xmlns="http://www.w3.org/2000/svg">
  <clipPath id="clipPath">
    <path d="M 0 3 L 3 3 L 3 2 L 2 2 L 2 1 L 1 1 L 1 0 L 6 0 L 6 1 L 5 1 L 5 2 L 4 2 L 4 3 L 7 3 L 7 4 L 4 4 L 4 5 L 5 5 L 5 6 L 6 6 L 6 7 L 1 7 L 1 6 L 2 6 L 2 5 L 3 5 L 3 4 L 0 4 L 0 3 Z" fill="black" />
  </clipPath>
  <path d="M 0 3 L 3 3 L 3 2 L 2 2 L 2 1 L 1 1 L 1 0 L 6 0 L 6 1 L 5 1 L 5 2 L 4 2 L 4 3 L 7 3 L 7 4 L 4 4 L 4 5 L 5 5 L 5 6 L 6 6 L 6 7 L 1 7 L 1 6 L 2 6 L 2 5 L 3 5 L 3 4 L 0 4 L 0 3 Z" fill="black" />
</svg>