<?xml version="1.0" encoding="UTF-8"?>
<svg width="8" height="8" viewBox="0 0 8 8" xmlns="http://www.w3.org/2000/svg">
  <clipPath id="clipPath">
    <path d="M 0 8 L 1 8 L 1 6 L 3 6 L 3 4 L 5 4 L 5 2 L 7 2 L 7 0 L 8 0 L 8 1 L 6 1 L 6 3 L 4 3 L 4 5 L 2 5 L 2 7 L 0 7 L 0 8 Z M 4 8 L 5 8 L 5 6 L 7 6 L 7 4 L 8 4 L 8 5 L 6 5 L 6 7 L 4 7 L 4 8 Z M 1 2 L 3 2 L 3 0 L 4 0 L 4 1 L 2 1 L 2 3 L 0 3 L 0 4 L 1 4 L 1 2 Z" fill="black" />
  </clipPath>
  <path d="M 0 8 L 1 8 L 1 6 L 3 6 L 3 4 L 5 4 L 5 2 L 7 2 L 7 0 L 8 0 L 8 1 L 6 1 L 6 3 L 4 3 L 4 5 L 2 5 L 2 7 L 0 7 L 0 8 Z M 4 8 L 5 8 L 5 6 L 7 6 L 7 4 L 8 4 L 8 5 L 6 5 L 6 7 L 4 7 L 4 8 Z M 1 2 L 3 2 L 3 0 L 4 0 L 4 1 L 2 1 L 2 3 L 0 3 L 0 4 L 1 4 L 1 2 Z" fill="black" />
</svg>