<?xml version="1.0" encoding="UTF-8"?>
<svg width="16" height="16" viewBox="0 0 16 16" xmlns="http://www.w3.org/2000/svg">
  <clipPath id="clipPath">
    <path d="M 5 10 L 7 10 L 7 8 L 9 8 L 9 6 L 11 6 L 11 4 L 13 4 L 13 2 L 15 2 L 15 0 L 16 0 L 16 1 L 14 1 L 14 3 L 12 3 L 12 5 L 10 5 L 10 7 L 8 7 L 8 9 L 6 9 L 6 11 L 4 11 L 4 13 L 2 13 L 2 15 L 0 15 L 0 16 L 1 16 L 1 14 L 3 14 L 3 12 L 5 12 L 5 10 Z M 13 10 L 15 10 L 15 8 L 16 8 L 16 9 L 14 9 L 14 11 L 12 11 L 12 13 L 10 13 L 10 15 L 8 15 L 8 16 L 9 16 L 9 14 L 11 14 L 11 12 L 13 12 L 13 10 Z M 0 7 L 2 7 L 2 5 L 4 5 L 4 3 L 6 3 L 6 1 L 8 1 L 8 0 L 7 0 L 7 2 L 5 2 L 5 4 L 3 4 L 3 6 L 1 6 L 1 8 L 0 8 L 0 7 Z" fill="black" />
  </clipPath>
  <path d="M 5 10 L 7 10 L 7 8 L 9 8 L 9 6 L 11 6 L 11 4 L 13 4 L 13 2 L 15 2 L 15 0 L 16 0 L 16 1 L 14 1 L 14 3 L 12 3 L 12 5 L 10 5 L 10 7 L 8 7 L 8 9 L 6 9 L 6 11 L 4 11 L 4 13 L 2 13 L 2 15 L 0 15 L 0 16 L 1 16 L 1 14 L 3 14 L 3 12 L 5 12 L 5 10 Z M 13 10 L 15 10 L 15 8 L 16 8 L 16 9 L 14 9 L 14 11 L 12 11 L 12 13 L 10 13 L 10 15 L 8 15 L 8 16 L 9 16 L 9 14 L 11 14 L 11 12 L 13 12 L 13 10 Z M 0 7 L 2 7 L 2 5 L 4 5 L 4 3 L 6 3 L 6 1 L 8 1 L 8 0 L 7 0 L 7 2 L 5 2 L 5 4 L 3 4 L 3 6 L 1 6 L 1 8 L 0 8 L 0 7 Z" fill="black" />
</svg>